<svg xmlns="http://www.w3.org/2000/svg" viewBox="0 0 350 100" style="color:#121212">
  <!-- Chronicle · lockup: column-pencil + wordmark in Georgia. -->
  <svg x="0" y="11" width="78" height="78" viewBox="0 0 96 96">
    <g transform="rotate(-8 48 48)">
      <g fill="currentColor">
        <rect x="33" y="12.5" width="30" height="5.5" rx="1.2"/>
        <path d="M36 18 H60 L57.5 23.5 H38.5 Z"/>
      </g>
      <path d="M38.5 23.5 H57.5 C58.2 36 57.8 48 56.2 59.5 H39.8 C38.2 48 37.8 36 38.5 23.5 Z"
            fill="none" stroke="currentColor" stroke-width="3" stroke-linejoin="round"/>
      <path d="M48 27 V56.5 M43 27 C42.7 38 42.9 48 43.9 56.5 M53 27 C53.3 38 53.1 48 52.1 56.5"
            stroke="currentColor" stroke-width="1.8" stroke-linecap="round" fill="none"/>
      <path d="M39.8 59.5 L48 77.5 L56.2 59.5" fill="none" stroke="currentColor" stroke-width="3" stroke-linejoin="round"/>
      <path d="M44.9 69.8 L48 77.5 L51.1 69.8 Z" fill="#9a7b2d"/>
    </g>
  </svg>
  <text x="94" y="65" font-family="Georgia, 'Times New Roman', serif" font-size="46"
        font-weight="700" fill="currentColor" letter-spacing="0.5">Chronicle</text>
</svg>
