<svg xmlns="http://www.w3.org/2000/svg" width="96" height="96" viewBox="0 0 96 96" fill="none" role="img" aria-label="Chronicle lifeline icon primary">
  <title>Chronicle lifeline icon primary</title>
  <rect x="6" y="6" width="84" height="84" rx="18" fill="#0B1712"/>
  <rect x="9" y="9" width="78" height="78" rx="15" stroke="#8F6D20" stroke-width="1.35" fill="none"/>
  <path d="M29 73 C39 59 51 50 64 36" stroke="#B58A2D" stroke-width="8.2" stroke-linecap="round" fill="none"/>
  <path d="M31 72 C23 63.5 23 53.5 31 45 C39 53.5 39 63.5 31 72 Z" fill="#B58A2D"/>
  <path d="M65 43 C57 34.5 57 24.5 65 16 C73 24.5 73 34.5 65 43 Z" fill="#B58A2D"/>
  <path d="M48 21 L52.2 31.5 L63 35 L52.2 38.5 L48 49 L43.8 38.5 L33 35 L43.8 31.5 Z" fill="#B58A2D"/>
  <path d="M34 63 C42 54 51 48 60 39" stroke="#0B1712" stroke-width="1.5" stroke-linecap="round" opacity=".72"/>
  <circle cx="31" cy="64" r="2.2" fill="#0B1712" opacity=".78"/>
  <circle cx="65" cy="34" r="2.2" fill="#0B1712" opacity=".78"/>
  <path d="M48 25 L50.2 31.4 L56.8 33.5 L50.2 35.6 L48 42 L45.8 35.6 L39.2 33.5 L45.8 31.4 Z" fill="#0B1712" opacity=".75"/>

</svg>
