<svg xmlns="http://www.w3.org/2000/svg" width="96" height="96" viewBox="0 0 96 96" fill="none"><g stroke="currentColor" stroke-width="3.15" stroke-linecap="round" stroke-linejoin="round" fill="none">
  <circle cx="48" cy="48" r="34"/>
  <path d="M29 65 C36 56 45 49 54 42 C60 37 64 32 68 25"/>
  <path d="M28 67 C22 60 22 52 28 46 C34 52 34 60 28 67 Z"/>
  <circle cx="28" cy="55" r="2.8" fill="currentColor" stroke="none"/>
  <path d="M68 27 C62 20 62 12 68 6 C74 12 74 20 68 27 Z"/>
  <circle cx="68" cy="16" r="2.8" fill="currentColor" stroke="none"/>
  <path d="M48 24 L50.5 31.5 L58 34 L50.5 36.5 L48 44 L45.5 36.5 L38 34 L45.5 31.5 Z" fill="currentColor" stroke="none"/>
  <path d="M22 72 C30 76 39 78 48 78 C57 78 66 76 74 72"/>
</g></svg>